<?xml version="1.0" encoding="UTF-8" standalone="no"?>
<svg
   version="1.1"
   xlink="http://www.w3.org/1999/xlink"
   width="100"
   height="100"
   viewBox="22.200001 2.3010001 100 100"
   id="svg4"
   sodipodi:docname="logo.svg"
   inkscape:version="1.3.2 (091e20ef0f, 2023-11-25)"
   xmlns:inkscape="http://www.inkscape.org/namespaces/inkscape"
   xmlns:sodipodi="http://sodipodi.sourceforge.net/DTD/sodipodi-0.dtd"
   xmlns="http://www.w3.org/2000/svg"
   xmlns:svg="http://www.w3.org/2000/svg">
  <defs
     id="defs4" />
  <sodipodi:namedview
     id="namedview4"
     pagecolor="#ffffff"
     bordercolor="#000000"
     borderopacity="0.25"
     inkscape:showpageshadow="2"
     inkscape:pageopacity="0.0"
     inkscape:pagecheckerboard="0"
     inkscape:deskcolor="#d1d1d1"
     inkscape:zoom="7.5390991"
     inkscape:cx="62.474308"
     inkscape:cy="47.419459"
     inkscape:window-width="1920"
     inkscape:window-height="1011"
     inkscape:window-x="0"
     inkscape:window-y="0"
     inkscape:window-maximized="1"
     inkscape:current-layer="svg4" />
  <rect
     style="fill:#330066;fill-opacity:1"
     id="rect4"
     width="100"
     height="100"
     x="22.200001"
     y="2.3010001"
     rx="10"
     ry="10" />
  <g
     fill="#0033e7"
     id="g4"
     transform="translate(19.100001,2.4510001)"
     style="fill:#7093ff;fill-opacity:1">
    <path
       d="M 64.102,42.602 H 34.899 c -0.8,0 -1.5,-0.7 -1.5,-1.5 v -3.898 c 0,-0.801 0.7,-1.5 1.5,-1.5 h 29.102 c 0.8,0 1.5,0.699 1.5,1.5 v 3.898 c 0.102,0.797 -0.602,1.5 -1.398,1.5 z M 47,17.301 v 1 c -0.5,0 -1,0.2 -1.398,0.602 -0.602,0.699 -0.5,1.8 0.199,2.398 l 1.101,0.898 v 1.102 c -0.5,0 -1,0.2 -1.398,0.602 -0.602,0.699 -0.5,1.8 0.2,2.398 l 1.1,0.898 V 28 h 6 c -0.1,-0.3 -0.3,-0.5 -0.5,-0.699 l -1.1,-0.898 V 25.3 c 0.5,0 1,-0.2 1.3,-0.602 0.602,-0.699 0.5,-1.8 -0.2,-2.398 l -1.1,-0.898 v -1 c 0.5,0 1,-0.2 1.3,-0.602 0.602,-0.7 0.5,-1.8 -0.2,-2.398 l -1.1,-0.899 h -5.302 z m 4.398,-5.699 v -0.898 c 0.5,0 1,-0.2 1.3,-0.602 0.602,-0.7 0.5,-1.8 -0.198,-2.398 L 51.398,6.805 V 4.301 c 0,-1.101 -1,-2 -2.2,-2 -1,0 -1.8,0.602 -2.1,1.399 -0.5,-0.102 -1.102,0.199 -1.5,0.601 -0.598,0.7 -0.497,1.801 0.3,2.399 L 47,7.602 V 8.5 c -0.5,0 -1,0.2 -1.399,0.602 -0.601,0.7 -0.5,1.8 0.2,2.398 l 0.398,0.301 h 5.3 z M 82.5,30.199 h -28 c -0.8,0 -1.5,0.7 -1.5,1.5 0,0.8 0.7,1.5 1.5,1.5 h 28 c 0.8,0 1.5,-0.7 1.5,-1.5 0,-0.8 -0.7,-1.5 -1.5,-1.5 z"
       id="path1"
       style="fill:#7093ff;fill-opacity:1" />
    <path
       d="m 52.602,31.699 c 0,-1 0.8,-1.898 1.898,-1.898 h 0.602 v -0.2 c 0,-0.699 -0.7,-1.3 -1.602,-1.3 h -8 c -0.898,0 -1.601,0.601 -1.601,1.3 v 4.2 c 0,0.699 0.699,1.3 1.601,1.3 h 8 c 0.899,0 1.602,-0.601 1.602,-1.3 v -0.2 H 54.5 A 1.898,1.898 0 0 1 52.602,31.699 Z M 73.5,54.801 V 33.602 H 69.102 V 51.903 L 69,51.899 l 0.102,0.2 1.199,4.1 v 0.102 h 1.601 c 0.899,0 1.598,-0.699 1.598,-1.5 z"
       id="path2"
       style="fill:#7093ff;fill-opacity:1" />
    <path
       d="m 27.102,56.301 h 1.7 l 1.3,-4.398 L 30,51.899 v -35.7 h 39.102 v 13.603 h 4.399 v -20 c 0,-0.801 -0.7,-1.5 -1.5,-1.5 h -1.399 c -0.8,0 -1.5,0.699 -1.5,1.5 v 2.3 H 30 v -2.3 c 0,-0.801 -0.699,-1.5 -1.5,-1.5 h -1.398 c -0.8,0 -1.5,0.699 -1.5,1.5 v 44.902 c 0,0.898 0.7,1.597 1.5,1.597 z M 76.801,67 c 0,-1.2 -0.8,-2.102 -1.8,-2.102 H 73.399 V 59.2 c 0,-0.8 -0.7,-1.5 -1.5,-1.5 h -1.2 l 1.899,6.3 c 0,0.3 0,0.5 -0.2,0.7 -0.3,0.3 -0.699,0.5 -1.199,0.5 H 27.9 c -0.5,0 -1,-0.2 -1.2,-0.5 -0.199,-0.2 -0.199,-0.5 -0.199,-0.7 l 1.8,-6.3 H 27 c -0.8,0 -1.5,0.698 -1.5,1.5 v 5.698 H 24 c -1,0 -1.8,0.899 -1.8,2.102 v 28.199 c 0,1.2 1,2.2 2.198,2.2 h 2 c 1.2,0 2.2,-1 2.2,-2.2 l 0.003,-16.5 C 29.402,78.598 30,78 30,77.2 V 71 h 39.102 v 6.2 c 0,0.8 0.601,1.398 1.398,1.5 v 16.397 c 0,1.2 1,2.2 2.2,2.2 h 2 c 1.199,0 2.199,-1 2.199,-2.2 V 67 Z"
       id="path3"
       style="fill:#7093ff;fill-opacity:1" />
    <path
       d="m 72,64.102 -1.898,-6.398 -0.399,-1.399 v -0.101 l -0.101,-0.399 -0.2,-0.699 -0.3,-1 -0.2,-0.8 -0.5,-1.602 L 65,51.7 64.102,47.7 H 39.399 c -2.2,0 -2.899,-1.102 -2.899,-1.2 l -0.398,-0.699 -0.399,0.7 c 0,0.101 -1,1.699 -1.398,3.3 -0.102,0.301 -0.2,1 -0.5,1.801 h -3.102 l -3.601,12.301 c 0,0.102 0,0.2 0.101,0.2 0.102,0.199 0.399,0.3 0.801,0.3 h 43.203 c 0.3,0 0.602,-0.101 0.8,-0.3 C 72,64.2 72,64.2 72,64.103 Z M 66.102,62 c -0.102,0.102 -0.2,0.102 -0.301,0.102 h -33 C 32.601,62.102 32.5,62 32.5,62 c 0,-0.101 -0.102,-0.199 -0.102,-0.3 0.102,-0.301 0.7,-2.801 1.301,-5.301 0.399,-1.602 0.801,-3.2 1.102,-4.399 v -0.1 c 0.2,-0.7 0.3,-1.3 0.398,-1.602 0.2,-0.898 0.7,-1.8 1,-2.398 0.602,0.5 1.602,1.101 3.301,1.101 h 23.898 l 0.7,3 v 0.102 l 1,4.398 1.199,5.301 c -0.098,0 -0.196,0.098 -0.196,0.2 z"
       id="path4"
       style="fill:#7093ff;fill-opacity:1" />
  </g>
</svg>
